<svg height="512pt" viewBox="0 -96 512.00104 512" width="512pt" xmlns="http://www.w3.org/2000/svg"><path d="m420.324219 136.917969c-13.933594 0-27.152344 3.132812-38.992188 8.71875l-48.9375-69.945313v-44.46875h11.867188c8.621093 0 15.609375-6.992187 15.609375-15.613281 0-8.617187-6.988282-15.609375-15.609375-15.609375h-54.953125c-8.621094 0-15.609375 6.992188-15.609375 15.609375 0 8.621094 6.988281 15.613281 15.609375 15.613281h11.863281v33.777344h-130.550781l16.683594-43.835938c1.824218-4.800781 1.175781-10.1875-1.738282-14.414062-2.914062-4.226562-7.71875-6.75-12.851562-6.75h-63.523438c-8.621094 0-15.609375 6.988281-15.609375 15.609375s6.988281 15.609375 15.609375 15.609375h40.882813l-40.863281 107.386719c-5.679688-1.105469-11.539063-1.6875-17.539063-1.6875-50.546875 0-91.671875 41.125-91.671875 91.675781 0 50.546875 41.125 91.671875 91.675781 91.671875 50.546875 0 91.671875-41.125 91.671875-91.671875 0-33.503906-18.066406-62.859375-44.96875-78.855469l13.898438-36.519531 64.832031 89.757812c-4.972656 7.308594-7.882813 16.128907-7.882813 25.613282 0 25.167968 20.472657 45.644531 45.640626 45.644531 19.6875 0 36.5-12.53125 42.890624-30.035156h32.230469c7.429688 43.140625 45.109375 76.066406 90.339844 76.066406 50.546875 0 91.671875-41.125 91.671875-91.675781 0-50.546875-41.125-91.671875-91.675781-91.671875zm-268.195313 91.675781c0 33.332031-27.121094 60.453125-60.453125 60.453125-33.335937 0-60.457031-27.121094-60.457031-60.453125 0-33.335938 27.121094-60.457031 60.457031-60.457031 2.085938 0 4.148438.105469 6.179688.316406l-20.769531 54.589844c-3.066407 8.054687.980468 17.074219 9.039062 20.140625 1.828125.691406 3.703125 1.023437 5.546875 1.023437 6.292969 0 12.222656-3.832031 14.59375-10.0625l20.753906-54.550781c15.195313 10.992188 25.109375 28.851562 25.109375 49zm238.222656-15.613281h-28.425781c2.320313-8.671875 6.523438-16.582031 12.148438-23.261719zm-60.363281 0h-32.230469c-2.515624-6.894531-6.65625-13.011719-11.949218-17.902344l34.4375-82.292969 35.527344 50.777344c-13.230469 13.136719-22.488282 30.273438-25.785157 49.417969zm-89.542969 15.613281c0-7.953125 6.46875-14.425781 14.421876-14.425781 7.949218 0 14.421874 6.472656 14.421874 14.425781 0 7.949219-6.472656 14.421875-14.421874 14.421875-7.953126 0-14.421876-6.472656-14.421876-14.421875zm52.886719-132.371094-36.3125 86.78125c-.714843-.03125-1.429687-.054687-2.152343-.054687-4.316407 0-8.492188.617187-12.453126 1.742187l-63.902343-88.46875zm126.992188 192.824219c-27.9375 0-51.5-19.054687-58.398438-44.84375h58.398438c5.820312 0 11.160156-3.238281 13.847656-8.402344 2.6875-5.160156 2.28125-11.390625-1.054687-16.15625l-33.484376-47.855469c6.457032-2.359374 13.425782-3.652343 20.691407-3.652343 33.335937 0 60.457031 27.121093 60.457031 60.457031 0 33.332031-27.121094 60.453125-60.457031 60.453125zm0 0"/></svg>